<mxfile host="app.diagrams.net" agent="Mozilla/5.0 (X11; Linux x86_64; rv:134.0) Gecko/20100101 Firefox/134.0" version="28.2.5">
  <diagram name="PÃ¡gina-1" id="UxqjbseVe5zKjL7sJ-xc">
    <mxGraphModel dx="1426" dy="754" grid="1" gridSize="10" guides="1" tooltips="1" connect="1" arrows="1" fold="1" page="1" pageScale="1" pageWidth="827" pageHeight="1169" math="0" shadow="0">
      <root>
        <mxCell id="0" />
        <mxCell id="1" parent="0" />
        <mxCell id="-tmAihr08ttMUUq2PfTn-5" value="ARTISTAS" style="swimlane;childLayout=stackLayout;horizontal=1;startSize=50;horizontalStack=0;rounded=1;fontSize=14;fontStyle=0;strokeWidth=2;resizeParent=0;resizeLast=1;shadow=0;dashed=0;align=center;arcSize=4;whiteSpace=wrap;html=1;fillColor=#dae8fc;strokeColor=#6c8ebf;" vertex="1" parent="1">
          <mxGeometry x="50" y="40" width="160" height="120" as="geometry" />
        </mxCell>
        <mxCell id="-tmAihr08ttMUUq2PfTn-6" value="&lt;div&gt;NOMBRE&lt;/div&gt;&lt;div&gt;EDAD&lt;/div&gt;" style="align=left;strokeColor=none;fillColor=none;spacingLeft=4;spacingRight=4;fontSize=12;verticalAlign=top;resizable=0;rotatable=0;part=1;html=1;whiteSpace=wrap;" vertex="1" parent="-tmAihr08ttMUUq2PfTn-5">
          <mxGeometry y="50" width="160" height="70" as="geometry" />
        </mxCell>
        <mxCell id="-tmAihr08ttMUUq2PfTn-7" value="CONCIERTOS" style="swimlane;childLayout=stackLayout;horizontal=1;startSize=50;horizontalStack=0;rounded=1;fontSize=14;fontStyle=0;strokeWidth=2;resizeParent=0;resizeLast=1;shadow=0;dashed=0;align=center;arcSize=4;whiteSpace=wrap;html=1;fillColor=#dae8fc;strokeColor=#6c8ebf;" vertex="1" parent="1">
          <mxGeometry x="540" y="40" width="160" height="120" as="geometry" />
        </mxCell>
        <mxCell id="-tmAihr08ttMUUq2PfTn-8" value="&lt;div&gt;FECHA&lt;/div&gt;&lt;div&gt;UBICACION&lt;/div&gt;&lt;div&gt;NOMBRE&lt;br&gt;&lt;/div&gt;" style="align=left;strokeColor=none;fillColor=none;spacingLeft=4;spacingRight=4;fontSize=12;verticalAlign=top;resizable=0;rotatable=0;part=1;html=1;whiteSpace=wrap;" vertex="1" parent="-tmAihr08ttMUUq2PfTn-7">
          <mxGeometry y="50" width="160" height="70" as="geometry" />
        </mxCell>
        <mxCell id="-tmAihr08ttMUUq2PfTn-23" style="edgeStyle=orthogonalEdgeStyle;rounded=0;orthogonalLoop=1;jettySize=auto;html=1;" edge="1" parent="1" source="-tmAihr08ttMUUq2PfTn-9">
          <mxGeometry relative="1" as="geometry">
            <mxPoint x="630" y="250" as="targetPoint" />
          </mxGeometry>
        </mxCell>
        <mxCell id="-tmAihr08ttMUUq2PfTn-9" value="GIRAS" style="swimlane;childLayout=stackLayout;horizontal=1;startSize=50;horizontalStack=0;rounded=1;fontSize=14;fontStyle=0;strokeWidth=2;resizeParent=0;resizeLast=1;shadow=0;dashed=0;align=center;arcSize=4;whiteSpace=wrap;html=1;fillColor=#dae8fc;strokeColor=#6c8ebf;" vertex="1" parent="1">
          <mxGeometry x="550" y="320" width="160" height="120" as="geometry" />
        </mxCell>
        <mxCell id="-tmAihr08ttMUUq2PfTn-10" value="NOMBRE" style="align=left;strokeColor=none;fillColor=none;spacingLeft=4;spacingRight=4;fontSize=12;verticalAlign=top;resizable=0;rotatable=0;part=1;html=1;whiteSpace=wrap;" vertex="1" parent="-tmAihr08ttMUUq2PfTn-9">
          <mxGeometry y="50" width="160" height="70" as="geometry" />
        </mxCell>
        <mxCell id="-tmAihr08ttMUUq2PfTn-11" value="CANCIONES" style="swimlane;childLayout=stackLayout;horizontal=1;startSize=50;horizontalStack=0;rounded=1;fontSize=14;fontStyle=0;strokeWidth=2;resizeParent=0;resizeLast=1;shadow=0;dashed=0;align=center;arcSize=4;whiteSpace=wrap;html=1;fillColor=#dae8fc;strokeColor=#6c8ebf;" vertex="1" parent="1">
          <mxGeometry x="10" y="480" width="160" height="120" as="geometry" />
        </mxCell>
        <mxCell id="-tmAihr08ttMUUq2PfTn-12" value="NOMBRE" style="align=left;strokeColor=none;fillColor=none;spacingLeft=4;spacingRight=4;fontSize=12;verticalAlign=top;resizable=0;rotatable=0;part=1;html=1;whiteSpace=wrap;" vertex="1" parent="-tmAihr08ttMUUq2PfTn-11">
          <mxGeometry y="50" width="160" height="70" as="geometry" />
        </mxCell>
        <mxCell id="-tmAihr08ttMUUq2PfTn-13" value="GRUPOS" style="swimlane;childLayout=stackLayout;horizontal=1;startSize=50;horizontalStack=0;rounded=1;fontSize=14;fontStyle=0;strokeWidth=2;resizeParent=0;resizeLast=1;shadow=0;dashed=0;align=center;arcSize=4;whiteSpace=wrap;html=1;fillColor=#dae8fc;strokeColor=#6c8ebf;" vertex="1" parent="1">
          <mxGeometry x="280" y="350" width="160" height="120" as="geometry" />
        </mxCell>
        <mxCell id="-tmAihr08ttMUUq2PfTn-14" value="&lt;div&gt;NOMBRE&lt;/div&gt;&lt;div&gt;ID ARTISTAS&lt;br&gt;&lt;/div&gt;" style="align=left;strokeColor=none;fillColor=none;spacingLeft=4;spacingRight=4;fontSize=12;verticalAlign=top;resizable=0;rotatable=0;part=1;html=1;whiteSpace=wrap;" vertex="1" parent="-tmAihr08ttMUUq2PfTn-13">
          <mxGeometry y="50" width="160" height="70" as="geometry" />
        </mxCell>
        <mxCell id="-tmAihr08ttMUUq2PfTn-15" value="HACEN" style="rhombus;whiteSpace=wrap;html=1;fillColor=#ffe6cc;strokeColor=#d79b00;" vertex="1" parent="1">
          <mxGeometry x="310" y="15" width="80" height="80" as="geometry" />
        </mxCell>
        <mxCell id="-tmAihr08ttMUUq2PfTn-16" style="edgeStyle=orthogonalEdgeStyle;rounded=0;orthogonalLoop=1;jettySize=auto;html=1;entryX=0;entryY=1;entryDx=0;entryDy=0;exitX=1;exitY=0.25;exitDx=0;exitDy=0;" edge="1" parent="1" source="-tmAihr08ttMUUq2PfTn-6" target="-tmAihr08ttMUUq2PfTn-15">
          <mxGeometry relative="1" as="geometry" />
        </mxCell>
        <mxCell id="-tmAihr08ttMUUq2PfTn-17" style="edgeStyle=orthogonalEdgeStyle;rounded=0;orthogonalLoop=1;jettySize=auto;html=1;entryX=0.019;entryY=0.367;entryDx=0;entryDy=0;entryPerimeter=0;" edge="1" parent="1" source="-tmAihr08ttMUUq2PfTn-15" target="-tmAihr08ttMUUq2PfTn-7">
          <mxGeometry relative="1" as="geometry">
            <mxPoint x="530" y="90" as="targetPoint" />
          </mxGeometry>
        </mxCell>
        <mxCell id="-tmAihr08ttMUUq2PfTn-18" value="&lt;font style=&quot;font-size: 16px;&quot;&gt;1&lt;/font&gt;" style="text;html=1;align=center;verticalAlign=middle;resizable=0;points=[];autosize=1;strokeColor=none;fillColor=none;" vertex="1" parent="1">
          <mxGeometry x="210" y="40" width="30" height="30" as="geometry" />
        </mxCell>
        <mxCell id="-tmAihr08ttMUUq2PfTn-21" value="N" style="text;html=1;align=center;verticalAlign=middle;resizable=0;points=[];autosize=1;strokeColor=none;fillColor=none;fontSize=16;" vertex="1" parent="1">
          <mxGeometry x="505" y="40" width="40" height="30" as="geometry" />
        </mxCell>
        <mxCell id="-tmAihr08ttMUUq2PfTn-22" value="N" style="text;html=1;align=center;verticalAlign=middle;resizable=0;points=[];autosize=1;strokeColor=none;fillColor=none;fontSize=16;" vertex="1" parent="1">
          <mxGeometry x="660" y="160" width="40" height="30" as="geometry" />
        </mxCell>
        <mxCell id="-tmAihr08ttMUUq2PfTn-25" value="" style="edgeStyle=orthogonalEdgeStyle;rounded=0;orthogonalLoop=1;jettySize=auto;html=1;" edge="1" parent="1" source="-tmAihr08ttMUUq2PfTn-24" target="-tmAihr08ttMUUq2PfTn-8">
          <mxGeometry relative="1" as="geometry" />
        </mxCell>
        <mxCell id="-tmAihr08ttMUUq2PfTn-24" value="CONTIENE" style="rhombus;whiteSpace=wrap;html=1;fillColor=#ffe6cc;strokeColor=#d79b00;" vertex="1" parent="1">
          <mxGeometry x="590" y="200" width="80" height="80" as="geometry" />
        </mxCell>
        <mxCell id="-tmAihr08ttMUUq2PfTn-27" value="&lt;font style=&quot;font-size: 16px;&quot;&gt;1&lt;/font&gt;" style="text;html=1;align=center;verticalAlign=middle;resizable=0;points=[];autosize=1;strokeColor=none;fillColor=none;" vertex="1" parent="1">
          <mxGeometry x="680" y="290" width="30" height="30" as="geometry" />
        </mxCell>
        <mxCell id="-tmAihr08ttMUUq2PfTn-30" style="edgeStyle=orthogonalEdgeStyle;rounded=0;orthogonalLoop=1;jettySize=auto;html=1;entryX=0.25;entryY=0;entryDx=0;entryDy=0;" edge="1" parent="1" source="-tmAihr08ttMUUq2PfTn-28" target="-tmAihr08ttMUUq2PfTn-11">
          <mxGeometry relative="1" as="geometry" />
        </mxCell>
        <mxCell id="-tmAihr08ttMUUq2PfTn-28" value="HACEN" style="rhombus;whiteSpace=wrap;html=1;fillColor=#ffe6cc;strokeColor=#d79b00;" vertex="1" parent="1">
          <mxGeometry x="30" y="255" width="80" height="80" as="geometry" />
        </mxCell>
        <mxCell id="-tmAihr08ttMUUq2PfTn-29" style="edgeStyle=orthogonalEdgeStyle;rounded=0;orthogonalLoop=1;jettySize=auto;html=1;" edge="1" parent="1" source="-tmAihr08ttMUUq2PfTn-6" target="-tmAihr08ttMUUq2PfTn-28">
          <mxGeometry relative="1" as="geometry" />
        </mxCell>
        <mxCell id="-tmAihr08ttMUUq2PfTn-34" style="edgeStyle=orthogonalEdgeStyle;rounded=0;orthogonalLoop=1;jettySize=auto;html=1;entryX=0;entryY=0.5;entryDx=0;entryDy=0;" edge="1" parent="1" source="-tmAihr08ttMUUq2PfTn-31" target="-tmAihr08ttMUUq2PfTn-14">
          <mxGeometry relative="1" as="geometry" />
        </mxCell>
        <mxCell id="-tmAihr08ttMUUq2PfTn-31" value="PERTENECE" style="rhombus;whiteSpace=wrap;html=1;fillColor=#ffe6cc;strokeColor=#d79b00;" vertex="1" parent="1">
          <mxGeometry x="220" y="190" width="90" height="90" as="geometry" />
        </mxCell>
        <mxCell id="-tmAihr08ttMUUq2PfTn-33" style="edgeStyle=orthogonalEdgeStyle;rounded=0;orthogonalLoop=1;jettySize=auto;html=1;entryX=0.9;entryY=0.943;entryDx=0;entryDy=0;entryPerimeter=0;" edge="1" parent="1" source="-tmAihr08ttMUUq2PfTn-31" target="-tmAihr08ttMUUq2PfTn-6">
          <mxGeometry relative="1" as="geometry" />
        </mxCell>
        <mxCell id="-tmAihr08ttMUUq2PfTn-35" value="M" style="text;html=1;align=center;verticalAlign=middle;resizable=0;points=[];autosize=1;strokeColor=none;fillColor=none;" vertex="1" parent="1">
          <mxGeometry x="170" y="170" width="30" height="30" as="geometry" />
        </mxCell>
        <mxCell id="-tmAihr08ttMUUq2PfTn-36" value="N" style="text;html=1;align=center;verticalAlign=middle;resizable=0;points=[];autosize=1;strokeColor=none;fillColor=none;fontSize=16;" vertex="1" parent="1">
          <mxGeometry x="220" y="350" width="40" height="30" as="geometry" />
        </mxCell>
        <mxCell id="-tmAihr08ttMUUq2PfTn-37" value="M" style="text;html=1;align=center;verticalAlign=middle;resizable=0;points=[];autosize=1;strokeColor=none;fillColor=none;" vertex="1" parent="1">
          <mxGeometry x="90" y="160" width="30" height="30" as="geometry" />
        </mxCell>
        <mxCell id="-tmAihr08ttMUUq2PfTn-38" value="N" style="text;html=1;align=center;verticalAlign=middle;resizable=0;points=[];autosize=1;strokeColor=none;fillColor=none;fontSize=16;" vertex="1" parent="1">
          <mxGeometry x="50" y="450" width="40" height="30" as="geometry" />
        </mxCell>
        <mxCell id="-tmAihr08ttMUUq2PfTn-41" style="edgeStyle=orthogonalEdgeStyle;rounded=0;orthogonalLoop=1;jettySize=auto;html=1;entryX=0;entryY=0.143;entryDx=0;entryDy=0;entryPerimeter=0;" edge="1" parent="1" source="-tmAihr08ttMUUq2PfTn-39" target="-tmAihr08ttMUUq2PfTn-10">
          <mxGeometry relative="1" as="geometry">
            <mxPoint x="500" y="380" as="targetPoint" />
          </mxGeometry>
        </mxCell>
        <mxCell id="-tmAihr08ttMUUq2PfTn-39" value="HACEN" style="rhombus;whiteSpace=wrap;html=1;fillColor=#ffe6cc;strokeColor=#d79b00;" vertex="1" parent="1">
          <mxGeometry x="414" y="210" width="80" height="80" as="geometry" />
        </mxCell>
        <mxCell id="-tmAihr08ttMUUq2PfTn-40" style="edgeStyle=orthogonalEdgeStyle;rounded=0;orthogonalLoop=1;jettySize=auto;html=1;entryX=0.125;entryY=0.425;entryDx=0;entryDy=0;entryPerimeter=0;" edge="1" parent="1" source="-tmAihr08ttMUUq2PfTn-6" target="-tmAihr08ttMUUq2PfTn-39">
          <mxGeometry relative="1" as="geometry">
            <mxPoint x="240" y="180" as="targetPoint" />
          </mxGeometry>
        </mxCell>
        <mxCell id="-tmAihr08ttMUUq2PfTn-42" value="&lt;font style=&quot;font-size: 16px;&quot;&gt;1&lt;/font&gt;" style="text;html=1;align=center;verticalAlign=middle;resizable=0;points=[];autosize=1;strokeColor=none;fillColor=none;" vertex="1" parent="1">
          <mxGeometry x="210" y="120" width="30" height="30" as="geometry" />
        </mxCell>
        <mxCell id="-tmAihr08ttMUUq2PfTn-43" value="N" style="text;html=1;align=center;verticalAlign=middle;resizable=0;points=[];autosize=1;strokeColor=none;fillColor=none;fontSize=16;" vertex="1" parent="1">
          <mxGeometry x="494" y="335" width="40" height="30" as="geometry" />
        </mxCell>
        <mxCell id="-tmAihr08ttMUUq2PfTn-46" style="edgeStyle=orthogonalEdgeStyle;rounded=0;orthogonalLoop=1;jettySize=auto;html=1;entryX=1;entryY=0.5;entryDx=0;entryDy=0;" edge="1" parent="1" source="-tmAihr08ttMUUq2PfTn-44" target="-tmAihr08ttMUUq2PfTn-12">
          <mxGeometry relative="1" as="geometry" />
        </mxCell>
        <mxCell id="-tmAihr08ttMUUq2PfTn-44" value="HACEN" style="rhombus;whiteSpace=wrap;html=1;fillColor=#ffe6cc;strokeColor=#d79b00;" vertex="1" parent="1">
          <mxGeometry x="250" y="530" width="80" height="80" as="geometry" />
        </mxCell>
        <mxCell id="-tmAihr08ttMUUq2PfTn-45" style="edgeStyle=orthogonalEdgeStyle;rounded=0;orthogonalLoop=1;jettySize=auto;html=1;entryX=0.425;entryY=0.986;entryDx=0;entryDy=0;entryPerimeter=0;" edge="1" parent="1" source="-tmAihr08ttMUUq2PfTn-44" target="-tmAihr08ttMUUq2PfTn-14">
          <mxGeometry relative="1" as="geometry" />
        </mxCell>
        <mxCell id="-tmAihr08ttMUUq2PfTn-47" value="&lt;font style=&quot;font-size: 16px;&quot;&gt;1&lt;/font&gt;" style="text;html=1;align=center;verticalAlign=middle;resizable=0;points=[];autosize=1;strokeColor=none;fillColor=none;" vertex="1" parent="1">
          <mxGeometry x="350" y="480" width="30" height="30" as="geometry" />
        </mxCell>
        <mxCell id="-tmAihr08ttMUUq2PfTn-48" value="N" style="text;html=1;align=center;verticalAlign=middle;resizable=0;points=[];autosize=1;strokeColor=none;fillColor=none;fontSize=16;" vertex="1" parent="1">
          <mxGeometry x="170" y="525" width="40" height="30" as="geometry" />
        </mxCell>
        <mxCell id="-tmAihr08ttMUUq2PfTn-49" value="&lt;div&gt;ES PRINCIPAL&lt;/div&gt;&lt;div&gt;&lt;br&gt;&lt;/div&gt;" style="rhombus;whiteSpace=wrap;html=1;fillColor=#ffe6cc;strokeColor=#d79b00;" vertex="1" parent="1">
          <mxGeometry x="130" y="310" width="80" height="80" as="geometry" />
        </mxCell>
        <mxCell id="-tmAihr08ttMUUq2PfTn-50" style="edgeStyle=orthogonalEdgeStyle;rounded=0;orthogonalLoop=1;jettySize=auto;html=1;entryX=0.85;entryY=0.033;entryDx=0;entryDy=0;entryPerimeter=0;" edge="1" parent="1" source="-tmAihr08ttMUUq2PfTn-49" target="-tmAihr08ttMUUq2PfTn-11">
          <mxGeometry relative="1" as="geometry" />
        </mxCell>
        <mxCell id="-tmAihr08ttMUUq2PfTn-51" style="edgeStyle=orthogonalEdgeStyle;rounded=0;orthogonalLoop=1;jettySize=auto;html=1;entryX=0.688;entryY=1.043;entryDx=0;entryDy=0;entryPerimeter=0;" edge="1" parent="1" source="-tmAihr08ttMUUq2PfTn-49" target="-tmAihr08ttMUUq2PfTn-6">
          <mxGeometry relative="1" as="geometry" />
        </mxCell>
        <mxCell id="-tmAihr08ttMUUq2PfTn-52" value="N" style="text;html=1;align=center;verticalAlign=middle;resizable=0;points=[];autosize=1;strokeColor=none;fillColor=none;fontSize=16;" vertex="1" parent="1">
          <mxGeometry x="150" y="440" width="40" height="30" as="geometry" />
        </mxCell>
        <mxCell id="-tmAihr08ttMUUq2PfTn-53" value="&lt;font style=&quot;font-size: 16px;&quot;&gt;1&lt;/font&gt;" style="text;html=1;align=center;verticalAlign=middle;resizable=0;points=[];autosize=1;strokeColor=none;fillColor=none;" vertex="1" parent="1">
          <mxGeometry x="130" y="180" width="30" height="30" as="geometry" />
        </mxCell>
        <mxCell id="-tmAihr08ttMUUq2PfTn-58" style="edgeStyle=orthogonalEdgeStyle;rounded=0;orthogonalLoop=1;jettySize=auto;html=1;" edge="1" parent="1" source="-tmAihr08ttMUUq2PfTn-54">
          <mxGeometry relative="1" as="geometry">
            <mxPoint x="770" y="90" as="targetPoint" />
          </mxGeometry>
        </mxCell>
        <mxCell id="-tmAihr08ttMUUq2PfTn-54" value="HACEN" style="rhombus;whiteSpace=wrap;html=1;fillColor=#ffe6cc;strokeColor=#d79b00;" vertex="1" parent="1">
          <mxGeometry x="600" y="500" width="80" height="80" as="geometry" />
        </mxCell>
        <mxCell id="-tmAihr08ttMUUq2PfTn-55" style="edgeStyle=orthogonalEdgeStyle;rounded=0;orthogonalLoop=1;jettySize=auto;html=1;entryX=0;entryY=0.5;entryDx=0;entryDy=0;" edge="1" parent="1" source="-tmAihr08ttMUUq2PfTn-14" target="-tmAihr08ttMUUq2PfTn-54">
          <mxGeometry relative="1" as="geometry" />
        </mxCell>
        <mxCell id="-tmAihr08ttMUUq2PfTn-59" style="edgeStyle=orthogonalEdgeStyle;rounded=0;orthogonalLoop=1;jettySize=auto;html=1;" edge="1" parent="1" source="-tmAihr08ttMUUq2PfTn-8">
          <mxGeometry relative="1" as="geometry">
            <mxPoint x="770" y="100" as="targetPoint" />
          </mxGeometry>
        </mxCell>
      </root>
    </mxGraphModel>
  </diagram>
</mxfile>
